<?xml version="1.0" encoding="UTF-8"?>
<!DOCTYPE svg PUBLIC "-//W3C//DTD SVG 1.1//EN" "http://www.w3.org/Graphics/SVG/1.1/DTD/svg11.dtd">
<!-- Creator: CorelDRAW 2017 -->
<svg xmlns="http://www.w3.org/2000/svg" xml:space="preserve" width="67.3804mm" height="6.1469mm" version="1.1" style="shape-rendering:geometricPrecision; text-rendering:geometricPrecision; image-rendering:optimizeQuality; fill-rule:evenodd; clip-rule:evenodd"
viewBox="0 0 3025.41 276"
 xmlns:xlink="http://www.w3.org/1999/xlink">
 <defs>
  <style type="text/css">
   <![CDATA[
    .fil3 {fill:#424242}
    .fil2 {fill:white}
    .fil0 {fill:#424242;fill-rule:nonzero}
    .fil1 {fill:white;fill-rule:nonzero}
   ]]>
  </style>
 </defs>
 <g id="Vrstva_x0020_1">
  <metadata id="CorelCorpID_0Corel-Layer"/>
  <path class="fil0" d="M223.91 167.27l-68.43 0c-2.28,35.35 -16.73,51.7 -41.43,51.7 -30.79,0 -44.86,-25.85 -44.86,-80.97 0,-55.51 14.07,-80.98 44.86,-80.98 23.57,0 38.01,14.45 41.06,48.66l68.43 0c-7.6,-67.29 -47.52,-105.3 -109.49,-105.3 -71.47,0 -114.05,50.56 -114.05,138 0,86.68 42.57,137.62 114.05,137.62 63.48,0 103.4,-40.3 109.87,-108.73zm137.23 -167.27c-71.85,0 -110.63,52.08 -110.63,138.38 0,85.54 38.78,137.24 110.63,137.24 71.85,0 110.63,-51.7 110.63,-137.24 0,-86.29 -38.78,-138.38 -110.63,-138.38zm0 56.65c30.79,0 41.82,26.61 41.82,81.36 0,54.36 -11.02,80.97 -41.82,80.97 -31.17,0 -41.44,-26.61 -41.44,-80.97 0,-54.74 10.26,-81.36 41.44,-81.36zm286.64 -51.7l0 147.88 -77.93 -147.88 -60.06 0 0 266.11 66.52 0 0 -146.36 80.21 146.36 57.79 0 0 -266.11 -66.53 0zm329.6 0l-229.23 0 0 57.02 81.35 0 0 209.09 66.53 0 0 -209.09 81.36 0 0 -57.02zm234.18 56.64l0 -56.64 -194.64 0 0 266.11 194.64 0 0 -56.64 -128.11 0 0 -48.66 115.57 0 0 -56.64 -115.57 0 0 -47.52 128.11 0zm188.94 -56.64l0 147.88 -77.93 -147.88 -60.06 0 0 266.11 66.52 0 0 -146.36 80.21 146.36 57.79 0 0 -266.11 -66.53 0zm329.6 0l-229.23 0 0 57.02 81.35 0 0 209.09 66.53 0 0 -209.09 81.36 0 0 -57.02z"/>
  <path class="fil1" d="M2274.21 61.59l0 -56.64 -206.81 0 0 266.11 66.53 0 0 -96.56 131.54 0 0 -57.02 -131.54 0 0 -55.89 140.28 0zm143.7 -61.59c-71.85,0 -110.63,52.08 -110.63,138.38 0,85.54 38.78,137.24 110.63,137.24 71.85,0 110.63,-51.7 110.63,-137.24 0,-86.29 -38.78,-138.38 -110.63,-138.38zm0 56.65c30.79,0 41.82,26.61 41.82,81.36 0,54.36 -11.02,80.97 -41.82,80.97 -31.17,0 -41.44,-26.61 -41.44,-80.97 0,-54.74 10.26,-81.36 41.44,-81.36zm361.91 214.41l-53.98 -111.38c31.93,-12.55 52.46,-38.02 52.46,-74.89 0,-51.32 -42.57,-79.83 -99.6,-79.83l-111.38 0 0 266.11 66.53 0 0 -103.4 31.93 0 41.82 103.4 72.23 0zm-145.98 -212.51l42.57 0c22.43,0 36.5,10.26 36.5,26.23 0,17.87 -14.06,29.28 -36.5,29.28l-42.57 0 0 -55.51zm331.88 -53.6l-46 84.02 -46 -84.02 -59.68 0 0 266.11 66.52 0 0 -150.16 33.46 61.2 11.79 0 33.07 -60.83 0 149.78 66.53 0 0 -266.11 -59.69 0z"/>
  <g id="_1693190814160">
   <polygon class="fil2" points="1926.55,163.3 1926.55,214.3 1857.6,214.3 1857.6,61.32 1926.55,61.32 1926.55,112.31 1977.55,112.31 1977.55,163.3 "/>
   <polygon class="fil3" points="1875.57,163.3 1875.57,214.3 1824.58,214.3 1824.58,163.3 1773.58,163.3 1773.58,112.31 1824.58,112.31 1824.58,61.32 1875.57,61.32 1875.57,112.31 1926.56,112.31 1926.56,163.3 "/>
  </g>
 </g>
</svg>
