<?xml version="1.0" encoding="UTF-8"?>
<!DOCTYPE svg PUBLIC "-//W3C//DTD SVG 1.1//EN" "http://www.w3.org/Graphics/SVG/1.1/DTD/svg11.dtd">
<!-- Creator: CorelDRAW 2017 -->
<svg xmlns="http://www.w3.org/2000/svg" xml:space="preserve" width="62.8106mm" height="6.1384mm" version="1.1" style="shape-rendering:geometricPrecision; text-rendering:geometricPrecision; image-rendering:optimizeQuality; fill-rule:evenodd; clip-rule:evenodd"
viewBox="0 0 2592.68 253.38"
 xmlns:xlink="http://www.w3.org/1999/xlink">
 <defs>
  <style type="text/css">
   <![CDATA[
    .fil3 {fill:#424242}
    .fil2 {fill:white}
    .fil1 {fill:#424242;fill-rule:nonzero}
    .fil0 {fill:white;fill-rule:nonzero}
   ]]>
  </style>
 </defs>
 <g id="Vrstva_x0020_1">
  <metadata id="CorelCorpID_0Corel-Layer"/>
  <path class="fil0" d="M1661.3 56.62l0 -52.07 -190.12 0 0 244.64 61.16 0 0 -88.77 120.92 0 0 -52.42 -120.92 0 0 -51.38 128.96 0zm132.11 -56.62c-66.05,0 -101.7,47.88 -101.7,127.21 0,78.63 35.65,126.17 101.7,126.17 66.05,0 101.7,-47.53 101.7,-126.17 0,-79.33 -35.65,-127.21 -101.7,-127.21zm0 52.08c28.31,0 38.44,24.47 38.44,74.79 0,49.97 -10.13,74.44 -38.44,74.44 -28.66,0 -38.1,-24.47 -38.1,-74.44 0,-50.33 9.44,-74.79 38.1,-74.79zm332.71 197.11l-49.63 -102.4c29.36,-11.53 48.23,-34.95 48.23,-68.85 0,-47.18 -39.14,-73.39 -91.57,-73.39l-102.4 0 0 244.64 61.16 0 0 -95.06 29.36 0 38.44 95.06 66.4 0zm-134.2 -195.36l39.14 0c20.62,0 33.55,9.44 33.55,24.11 0,16.43 -12.93,26.91 -33.55,26.91l-39.14 0 0 -51.03zm305.1 -49.28l-42.29 77.24 -42.29 -77.24 -54.87 0 0 244.64 61.16 0 0 -138.04 30.76 56.27 10.84 0 30.41 -55.92 0 137.7 61.16 0 0 -244.64 -54.87 0zm234.85 244.64l60.81 0 -67.45 -244.64 -79.68 0 -67.45 244.64 60.81 0 10.14 -41.24 72.69 0 10.14 41.24zm-70.6 -90.52l24.11 -97.51 24.11 97.51 -48.23 0z"/>
  <path class="fil1" d="M101.7 0c-66.05,0 -101.7,47.88 -101.7,127.21 0,78.63 35.65,126.17 101.7,126.17 66.05,0 101.7,-47.53 101.7,-126.17 0,-79.33 -35.65,-127.21 -101.7,-127.21zm0 52.08c28.31,0 38.44,24.47 38.44,74.79 0,49.97 -10.13,74.44 -38.44,74.44 -28.66,0 -38.1,-24.47 -38.1,-74.44 0,-50.33 9.44,-74.79 38.1,-74.79zm275.74 70.6c30.76,-8.39 49.63,-25.86 49.63,-54.87 0,-38.79 -32.85,-63.26 -76.54,-63.26l-110.79 0 0 244.64 117.08 0c44.73,0 76.54,-26.91 76.54,-67.45 0,-33.55 -21.67,-52.07 -55.92,-59.06zm-76.54 -69.2l34.25 0c20.97,0 31.8,8.74 31.8,24.12 0,15.73 -11.53,24.11 -33.2,24.11l-32.85 0 0 -48.23zm34.25 146.44l-34.25 0 0 -51.73 37.74 0c22.72,0 34.25,8.74 34.25,25.16 0,17.13 -13.28,26.56 -37.74,26.56zm190.82 -38.1l-61.16 0c1.75,61.86 45.43,91.57 105.89,91.57 61.51,0 96.11,-31.1 96.11,-77.94 0,-56.27 -49.63,-67.45 -84.23,-75.14 -38.09,-8.74 -51.72,-11.88 -51.72,-29.01 0,-15.03 11.53,-23.76 31.8,-23.76 23.42,0 36.35,11.18 39.14,36l61.16 0c-3.15,-54.52 -36.35,-83.53 -100.65,-83.53 -52.08,0 -91.92,23.42 -91.92,74.79 0,49.28 31.8,61.16 90.52,74.79 27.26,6.64 45.78,10.84 45.78,29.01 0,16.78 -15.03,25.51 -34.25,25.51 -23.42,0 -42.64,-12.58 -46.48,-42.29zm314.19 87.37l60.81 0 -67.45 -244.64 -79.68 0 -67.45 244.64 60.81 0 10.14 -41.24 72.69 0 10.14 41.24zm-70.6 -90.52l24.11 -97.51 24.11 97.51 -48.23 0zm288.68 -154.47l0 96.46 -67.8 0 0 -96.46 -61.16 0 0 244.99 61.16 0 0 -96.11 67.8 0 0 96.11 61.16 0 0 -244.99 -61.16 0z"/>
  <g id="_1693143379712">
   <polygon class="fil2" points="1342.64,150.13 1342.64,197.01 1279.25,197.01 1279.25,56.37 1342.64,56.37 1342.64,103.25 1389.52,103.25 1389.52,150.13 "/>
   <polygon class="fil3" points="1295.77,150.13 1295.77,197.01 1248.89,197.01 1248.89,150.13 1202.01,150.13 1202.01,103.25 1248.89,103.25 1248.89,56.37 1295.77,56.37 1295.77,103.25 1342.65,103.25 1342.65,150.13 "/>
  </g>
 </g>
</svg>
