<?xml version="1.0" encoding="UTF-8"?>
<!DOCTYPE svg PUBLIC "-//W3C//DTD SVG 1.1//EN" "http://www.w3.org/Graphics/SVG/1.1/DTD/svg11.dtd">
<svg xmlns="http://www.w3.org/2000/svg" xml:space="preserve" width="439.302mm" height="271.614mm" style="shape-rendering:geometricPrecision; text-rendering:geometricPrecision; image-rendering:optimizeQuality; fill-rule:evenodd; clip-rule:evenodd"
viewBox="0 0 44000 27205"
 xmlns:xlink="http://www.w3.org/1999/xlink">
 <defs>
  <style type="text/css">
   <![CDATA[
    .fil0 {fill:#c09953;}
   ]]>
  </style>
 </defs>
 <g id="logo-ddd">
  <path class="fil0" d="M19151 18136c213,34 420,-7 620,-123 200,-116 323,-266 369,-451 46,-184 7,-359 -119,-522 -125,-164 -299,-263 -520,-298 -222,-35 -427,2 -617,112 -190,110 -309,261 -357,452 -48,192 -9,369 116,533 125,164 295,262 508,296zm17861 -6202c286,113 301,298 787,345 371,36 761,-180 811,-454 46,-253 -73,-522 -454,-601 -1067,-223 -1830,441 -2531,1119 -158,153 -185,76 -46,-170 242,-427 801,-1060 -247,-918 -331,45 -580,189 -820,413 -244,227 -464,497 -780,673 -574,319 -1301,467 -1972,-254 -544,-585 -851,-860 -1711,-860 -164,0 -329,12 -492,38 357,-628 661,-1120 1006,-1754 389,-716 602,-1131 -199,-1107 -678,21 -932,414 -1198,886 -515,918 -973,1727 -1506,2619 -171,285 -465,649 -796,686 -404,45 -833,-69 -1242,-508 -365,-392 -701,-716 -1237,-828 -178,-37 -353,-45 -455,16 -80,48 -120,148 25,331 873,1108 -451,3347 -1447,3848 -372,187 -688,92 -723,-350 -82,-1047 667,-2267 1311,-3015 480,-558 -73,-797 -708,-501 -316,147 -608,338 -873,571 -638,561 -970,1218 -1005,1959 -17,372 59,445 -251,729 -183,167 -798,472 -1219,458 -879,-29 -99,-1372 96,-1717 833,-1470 941,-1632 1775,-3102 430,-758 470,-1059 -252,-1026 -742,0 -1024,634 -1389,1253l-440 761c-313,-250 -638,-371 -1205,-371 -418,0 -835,82 -1253,246 -1159,455 -2292,1594 -2292,2910 0,1034 795,1682 1811,1702 624,13 1237,-199 1777,-497 154,346 567,446 1003,420 833,-48 1400,-428 1918,-1052 69,188 152,335 266,479 302,382 740,622 1275,662 1054,80 2257,-536 2948,-1309 448,-501 715,-1128 636,-1862 372,197 847,232 1341,105 -242,446 -458,882 -593,1237 -482,1271 434,1814 1578,1823 1068,8 2168,-323 2961,-1058 578,-536 942,-1257 851,-2106 561,298 1357,227 2099,-218 -556,941 -1098,2037 -1462,2748 -90,176 -115,319 133,363l614 111c518,94 728,-280 900,-595 492,-898 1911,-3663 2876,-3280zm-19409 1944c-245,439 -530,852 -840,1179 -774,816 -1736,628 -1206,-972 294,-889 1284,-2155 2251,-2385 306,-73 555,-17 578,272 44,539 -534,1460 -784,1906zm12500 -164c-378,778 -1407,1948 -2181,1840 -417,-58 4,-1072 110,-1324 281,-668 733,-1403 960,-1698 1309,-1706 2037,-725 1111,1182zm13276 -2298c-620,9 -828,358 -1124,905l-259 479c-497,919 -954,1537 -1422,1984 -468,447 -841,670 -1119,670 -357,0 -318,-360 -176,-742 319,-859 934,-1604 1384,-2395 344,-603 139,-909 -355,-921 -560,-14 -871,219 -1197,775l-607 1033c-51,86 -107,184 -165,288 -428,758 -985,2465 488,2469 711,2 1392,-416 1824,-828 98,-94 134,-71 62,53 -535,919 -1138,1881 -1837,2674 -774,879 -1927,1450 -3116,1067 -1525,-492 -569,-2620 855,-1765 122,73 200,-33 164,-151 -436,-1441 -2910,-713 -2900,707 12,1791 2287,1866 3520,1638 2145,-398 3583,-2025 4661,-3797 538,-883 1014,-1815 1507,-2666 304,-525 893,-1494 -185,-1479zm-1720 -773c363,202 861,111 1106,-26 482,-271 741,-886 446,-1411 -156,-279 -464,-455 -755,-407 -368,61 -61,216 -155,656 -88,414 -340,861 -741,825 -281,-25 -61,274 99,364zm-10721 -5057c-57,-37 -168,-31 -244,80 -563,819 -1687,2204 -2822,2204 -270,0 -405,-147 -405,-442 0,-418 245,-888 442,-1241 362,-649 539,-969 902,-1618 138,-247 170,-253 452,-253 228,0 399,0 627,0 759,0 802,-508 349,-508 -256,0 -511,0 -767,0 -244,0 -185,-48 -57,-285 389,-716 649,-1263 -151,-1238 -842,26 -1098,776 -1465,1390 -187,313 -196,321 -496,320 -146,0 -293,1 -439,4 -132,3 -237,60 -236,158 1,97 112,159 412,159 410,-2 325,71 115,456 -119,218 -278,472 -440,744 -167,267 -334,517 -524,742 -443,524 -1293,1352 -2080,1439 346,-431 302,-894 108,-1310 -200,-429 -539,-688 -799,-1061 -288,-413 -214,-1205 403,-1205 213,0 356,120 443,283 134,252 153,552 8,800 -58,100 -85,149 116,212 275,85 612,0 823,-190 398,-358 273,-878 -141,-1167 -258,-180 -629,-270 -1112,-270 -818,0 -1345,350 -1852,964 -107,130 -242,239 -510,309 -462,120 -974,50 -1455,-467 -423,-454 -702,-723 -1210,-819 -140,-27 -437,-79 -529,50 -41,57 -40,148 71,289 873,1108 -450,3347 -1447,3848 -372,187 -688,92 -723,-350 -82,-1047 667,-2267 1311,-3015 480,-558 -73,-797 -708,-501 -315,147 -608,338 -873,571 -583,512 -1011,1242 -1000,2033 4,244 22,443 -176,630 -191,181 -889,531 -1315,477 -777,-99 -11,-1393 169,-1711 646,-1140 1280,-2248 1876,-3414 672,-1312 705,-1897 -321,-2335 -1901,-812 -5533,-61 -7399,881 -693,350 -1303,780 -1550,1299 -584,1232 840,1877 1865,1215 76,-49 109,-106 86,-176 -24,-70 -77,-83 -146,-91 -479,-58 -760,-449 -541,-929 152,-335 405,-588 712,-800 1402,-964 3704,-1514 5341,-1365 1324,121 1109,1111 247,2654 -174,312 -196,375 -404,710 -304,-233 -626,-346 -1174,-346 -1546,7 -3666,1476 -3666,3301 0,1074 877,1784 1926,1769 590,-9 1165,-211 1678,-492 147,324 523,430 932,419 817,-22 1452,-377 1949,-1005 45,111 86,191 147,285 327,510 875,780 1522,793 1129,23 2428,-684 3050,-1612 295,-441 453,-959 390,-1546 483,256 1159,262 1786,-53 6,179 46,338 122,478 191,354 471,610 688,936 435,654 -124,1457 -848,1457 -501,0 -907,-358 -725,-875 363,145 725,-25 725,-467 0,-355 -296,-602 -639,-602 -488,0 -885,508 -885,971 0,941 877,1315 1831,1315 1477,0 2764,-462 3756,-1556 -43,156 -67,307 -67,450 1,861 598,1103 1302,1103 1044,0 1990,-533 2673,-1287 364,-401 682,-864 1002,-1342 78,-112 39,-213 -18,-250zm-18818 815c-257,433 -553,838 -871,1156 -597,596 -1230,618 -1301,-75 -143,-1391 1377,-3243 2536,-3462 521,-109 621,193 506,609 -160,579 -655,1411 -869,1771zm13866 11841c-380,5 -629,142 -815,370 -252,-332 -688,-475 -1330,-475 -418,0 -835,82 -1253,246 -945,370 -1489,973 -1995,1830 -329,557 -827,1251 -1541,1801 -235,181 -783,546 -1045,316 -357,-313 303,-1342 452,-1600 253,-436 333,-576 723,-1220 557,-919 -44,-833 -369,-832 -325,1 -834,97 -1202,739 -310,541 -478,884 -883,1363 -443,524 -1223,1243 -2002,1321 234,-252 293,-538 258,-819 -83,-656 -593,-1043 -948,-1552 -288,-413 -214,-1205 403,-1205 226,0 373,135 458,313 114,238 137,523 2,755 -64,110 -104,162 107,227 275,85 612,0 823,-190 398,-358 273,-878 -141,-1167 -258,-180 -629,-270 -1112,-270 -483,0 -978,126 -1370,418 -176,131 -315,282 -418,455 -102,172 -154,356 -154,553 0,197 41,371 123,522 191,354 471,610 688,936 435,654 -124,1457 -848,1457 -501,0 -908,-358 -725,-875 363,145 725,-25 725,-467 0,-355 -296,-602 -639,-602 -63,0 -124,8 -183,24 -276,73 -390,238 -588,430 -690,668 -1531,1215 -2356,1215 -588,0 -1021,-360 -1054,-906 -51,-838 1011,-2831 1867,-2831 602,0 622,1636 -1227,2352 -274,60 -204,276 60,245 892,-101 2442,-865 2748,-1829 187,-589 -256,-1098 -1091,-1098 -450,0 -911,89 -1382,267 -471,178 -895,425 -1272,740 -369,315 -649,657 -842,1026 -167,320 -262,632 -284,937 -23,316 80,420 -183,645 -188,161 -735,422 -1130,416 -902,-13 -126,-1362 75,-1717 832,-1467 1628,-2850 2460,-4317 430,-758 576,-1074 -252,-1026 -787,21 -1044,671 -1384,1250l-1260 2143c-330,-280 -660,-416 -1261,-416 -418,0 -835,82 -1253,246 -418,164 -803,389 -1143,688 -836,735 -1516,2357 -565,3280 708,689 1789,630 2736,206 148,-66 293,-140 433,-221 140,345 531,463 945,461 785,-5 1345,-350 1856,-918 54,130 109,224 185,328 330,450 856,660 1456,666 1093,10 2406,-711 3037,-1345 -127,1025 1036,1346 1796,1346 1036,0 2045,-208 2864,-769 344,-236 649,-513 936,-836 -153,564 -163,1300 474,1526 734,260 1555,-119 2046,-502 446,-347 935,-849 1212,-1249 -25,479 86,964 441,1309 515,500 1226,606 1940,464 -437,706 -1181,1855 -1701,2502 -628,781 -1381,1369 -2414,1446 -796,59 -1584,-211 -1708,-1081 -96,-669 512,-1332 1294,-1096 102,31 196,-3 153,-132 -351,-1052 -2516,-624 -2524,863 -5,953 734,1514 1544,1739 1403,390 2996,-29 4158,-805 1244,-831 2167,-2446 2929,-3722 546,-915 1063,-1865 1596,-2806 298,-528 916,-1497 -161,-1482zm-22494 2545c-245,439 -530,852 -840,1179 -774,816 -1680,617 -1150,-983 294,-889 1131,-2022 2098,-2251 306,-73 555,-17 578,272 44,539 -437,1337 -686,1784zm21163 -1727c-92,863 -1016,2474 -1644,2983 -617,499 -1372,362 -938,-1115 184,-624 630,-1354 1176,-1831 512,-447 1483,-749 1407,-37zm8036 2155c-382,530 -1552,1321 -2231,1328 -160,2 -283,-68 -308,-274 -129,-1057 2664,-2270 2664,-3438 0,-675 -715,-1028 -1303,-988 -961,66 -1579,508 -2231,1158 -48,47 -95,96 -144,146 -20,21 -101,119 -142,94 -11,-7 -7,-34 16,-84 45,-98 88,-196 122,-282 140,-353 92,-658 -653,-543 -596,92 -846,490 -1264,1225 -542,953 -1011,1808 -1530,2703 -79,136 -62,298 159,352l628 103c394,72 640,-174 839,-487 520,-816 946,-1585 1601,-2316 732,-816 1767,-1778 2194,-1425 474,392 -436,1156 -746,1418 -594,501 -1833,1519 -1592,2395 182,661 797,795 1407,711 1060,-146 2135,-844 2782,-1704 123,-173 -137,-269 -269,-90z"/>
 </g>
</svg>
