<?xml version="1.0" encoding="UTF-8"?>
<!DOCTYPE svg PUBLIC "-//W3C//DTD SVG 1.1//EN" "http://www.w3.org/Graphics/SVG/1.1/DTD/svg11.dtd">
<svg xmlns="http://www.w3.org/2000/svg" xml:space="preserve" width="475.591mm" height="124.873mm" style="shape-rendering:geometricPrecision; text-rendering:geometricPrecision; image-rendering:optimizeQuality; fill-rule:evenodd; clip-rule:evenodd"
viewBox="0 0 52318 13737"
 xmlns:xlink="http://www.w3.org/1999/xlink">
 <defs>
  <style type="text/css">
   <![CDATA[
    .fil0 {fill:#fff;}
   ]]>
  </style>
 </defs>
 <g id="Vrstva_x0020_1">
  <g id="_250169488">
   <g>
    <g>
     <path class="fil0" d="M3202 3095l8415 -1974 -2498 8275 -5917 -6301zm-3202 -3095l0 0 7931 13737 7931 -13737 -15862 0z"/>
     <polygon class="fil0" points="5768,3229 10217,3229 7992,7081 "/>
    </g>
    <g>
     <path class="fil0" d="M19388 7390c983,0 1636,-543 1636,-1500l0 -17c0,-949 -653,-1500 -1636,-1500l-670 0 0 3018 670 0zm-2314 -4475l0 0 2289 0c2119,0 3348,1220 3348,2933l0 17c0,1712 -1246,2984 -3382,2984l-2255 0 0 -5933z"/>
     <polygon class="fil0" points="23569,2915 28341,2915 28341,4313 25196,4313 25196,5212 28044,5212 28044,6509 25196,6509 25196,7450 28383,7450 28383,8848 23569,8848 "/>
     <path class="fil0" d="M28866 7967l915 -1093c585,466 1238,712 1924,712 441,0 678,-152 678,-407l0 -17c0,-246 -195,-382 -1000,-568 -1263,-288 -2238,-644 -2238,-1865l0 -17c0,-1102 873,-1899 2297,-1899 1009,0 1797,271 2441,788l-822 1161c-542,-381 -1136,-585 -1661,-585 -399,0 -593,169 -593,381l0 17c0,271 204,390 1026,577 1365,297 2213,737 2213,1848l0 17c0,1212 -958,1933 -2399,1933 -1051,0 -2051,-330 -2780,-983z"/>
     <polygon class="fil0" points="36074,4356 34294,4356 34294,2915 39499,2915 39499,4356 37719,4356 37719,8848 36074,8848 "/>
     <path class="fil0" d="M42844 5763c559,0 882,-271 882,-703l0 -17c0,-466 -339,-703 -890,-703l-1076 0 0 1424 1085 0zm-2729 -2848l0 0 2806 0c907,0 1534,237 1933,644 348,339 526,797 526,1382l0 17c0,907 -483,1509 -1221,1823l1416 2068 -1899 0 -1195 -1797 -17 0 -703 0 0 1797 -1645 0 0 -5933z"/>
     <path class="fil0" d="M50640 5899l0 -17c0,-856 -619,-1602 -1526,-1602 -898,0 -1500,729 -1500,1585l0 17c0,856 619,1602 1517,1602 907,0 1509,-729 1509,-1585zm-4713 0l0 0 0 -17c0,-1704 1373,-3085 3204,-3085 1831,0 3187,1365 3187,3068l0 17c0,1704 -1373,3085 -3204,3085 -1831,0 -3187,-1365 -3187,-3068z"/>
    </g>
   </g>
  </g>
 </g>
</svg>
