<?xml version="1.0" encoding="UTF-8"?>
<!DOCTYPE svg PUBLIC "-//W3C//DTD SVG 1.1//EN" "http://www.w3.org/Graphics/SVG/1.1/DTD/svg11.dtd">
<svg xmlns="http://www.w3.org/2000/svg" xml:space="preserve" width="489.418mm" height="130.212mm" style="shape-rendering:geometricPrecision; text-rendering:geometricPrecision; image-rendering:optimizeQuality; fill-rule:evenodd; clip-rule:evenodd"
viewBox="0 0 46708 12427"
 xmlns:xlink="http://www.w3.org/1999/xlink">
 <defs>
  <style type="text/css">
   <![CDATA[
    .fil0 {fill:#fff;}
   ]]>
  </style>
 </defs>
 <g id="Vrstva_x0020_1">
  <path class="fil0" d="M12713 2226c-103,-21 -205,-42 -308,-64 -48,34 -89,62 -141,91 -262,149 -486,205 -775,31 -116,-70 -225,-208 -311,-393 -711,-163 -1411,-337 -2098,-519 57,727 392,1333 977,1609 924,436 1902,-139 2656,-756zm2538 3554l0 0c181,-739 541,-1391 1058,-1625 659,-299 1047,344 735,1209 -271,700 -1109,1037 -1787,421 -2,-2 -4,-3 -6,-6zm-10194 -2318l0 0c-107,241 -208,484 -301,729 -407,1064 -901,2778 -676,3924 -1128,866 -1751,358 -1970,-579 -305,-1304 102,-3035 1084,-4011 590,-586 1312,-801 1864,-63zm18046 784l0 0 585 0 0 -610c-542,-30 -1080,-67 -1616,-108 519,432 1074,1856 665,3163 -97,333 -262,716 -467,1043 -245,391 -1036,1368 -1421,665 -489,-894 39,-2205 317,-3080 129,-405 229,-795 217,-1158 -8,-271 -72,-578 -307,-689 -99,-46 -273,-51 -380,-61 -747,-71 -1489,-152 -2223,-243l0 1093 1108 -5c-164,405 -327,875 -462,1352 -239,796 -548,1312 -1053,1906 -494,581 -1203,1206 -1944,1188 -840,-21 -1127,-1273 -956,-2471 0,-7 1,-13 2,-19 271,297 597,421 925,423 1466,9 2264,-1803 1487,-3008 -251,-389 -637,-687 -1195,-786 -1752,-323 -2737,1486 -3008,2951 -127,685 -159,1543 88,2258 -565,651 -1450,932 -1717,-75 -106,-382 -64,-842 56,-1295 170,-640 506,-1342 624,-1917 155,-759 -201,-928 -1378,-1130 -948,-163 -1756,-353 -2772,-711l-1 1581 428 0c-147,1176 -633,2964 -1572,3714 -525,420 -1075,524 -1148,-513 -150,-2118 1194,-4802 2389,-6524 -236,-66 -471,-133 -707,-202 -1044,-305 -2056,-632 -3031,-979l0 1497 1471 0c-302,483 -583,988 -834,1506 -818,-1648 -2462,-1502 -3682,-356 -1251,1173 -1874,3271 -1465,4903 461,1843 2262,2700 4065,958 558,1488 2260,1133 3367,221 1215,-1001 1645,-3021 1731,-4225l1407 0c-331,852 -679,1684 -795,2597 -93,728 -43,1526 438,1975 265,247 662,395 1241,396 821,1 1589,-420 2096,-963 363,606 969,907 1662,965 1676,139 2761,-945 3478,-2265 -62,1128 321,2262 1647,2269 928,5 1608,-470 2144,-1201 432,-588 690,-1207 792,-1873 98,-640 28,-1533 -295,-2155zm4192 3613l0 0c-630,1017 -1259,915 -1483,80 -116,-435 -141,-1063 47,-1725 155,-548 396,-1096 721,-1400 580,-543 1056,-283 1203,450 155,768 -62,1907 -487,2595zm863 -622l0 0c364,-1116 434,-2948 -669,-3577 -689,-394 -1657,-255 -2246,239 -694,581 -1034,1450 -1195,2245 -323,1601 116,3326 1807,3324 1088,-2 1921,-1058 2304,-2230zm6002 -6495l0 0c81,-286 54,-534 -205,-679 7,398 -192,720 -434,1016 -387,474 -973,942 -1491,1099 -405,122 -768,36 -832,-551l-1841 0c19,142 51,278 97,405 214,587 706,1005 1375,1010 488,5 948,-119 1379,-328 743,-359 1724,-1175 1952,-1972zm6480 7013l0 0c-743,1191 -1454,1073 -1686,94 -121,-510 -141,-1221 89,-1997 192,-642 471,-1260 848,-1616 674,-636 1206,-332 1354,527 154,900 -104,2186 -605,2991zm-9920 1396l0 0c-87,574 -315,1208 -633,1688 -739,1118 -1979,978 -1752,-571 167,-1135 1113,-2154 2045,-2934 298,434 465,990 340,1817zm10822 -2161l0 0c416,-1251 537,-3304 -619,-4009 -723,-442 -1755,-286 -2395,267 -752,651 -1137,1625 -1328,2516 -170,790 -182,1608 10,2275 -286,357 -659,631 -995,678 -201,28 -405,-19 -565,-180 -611,-613 29,-2115 296,-2778 356,-884 769,-1787 825,-2469 -1174,136 -2381,244 -3616,323 131,373 -92,734 -313,1018 -569,730 -1383,1381 -2118,1913 -144,-201 -269,-407 -356,-626 -352,-872 260,-1927 1258,-1835 218,20 445,98 667,239 251,-581 -601,-892 -1419,-883 -389,4 -770,95 -1089,264 -974,516 -1047,1566 -452,2431 189,275 431,520 681,767 33,32 66,66 98,100 -1115,866 -2264,1981 -2447,3346 -326,2431 2520,2537 3794,1301 668,-650 967,-1639 831,-2555 -55,-372 -196,-750 -438,-1113 -267,-400 -593,-757 -882,-1115 290,-217 581,-431 872,-646 809,-599 1597,-1203 2040,-1749l835 0c-375,759 -1031,2180 -1112,3058 -107,1166 482,1969 1815,1952 820,-11 1523,-431 1988,-944 306,577 832,954 1628,953 1157,-1 2070,-1186 2506,-2499zm5166 -4528l0 0 -1062 0c224,-377 459,-745 699,-1094 -1180,356 -2426,678 -3732,962l0 827 796 0c-412,816 -748,1670 -989,2557 -166,608 -368,1422 -332,2130 84,1679 1740,2080 2985,1172 408,-298 743,-792 919,-1287 104,-295 62,-678 -218,-790 -30,283 -77,461 -206,715 -361,715 -1076,1223 -1499,856 -523,-454 -206,-1972 -34,-2547 255,-857 689,-1842 1215,-2806l1459 0 0 -696z"/>
 </g>
</svg>
