<?xml version="1.0" encoding="UTF-8"?>
<!DOCTYPE svg PUBLIC "-//W3C//DTD SVG 1.1//EN" "http://www.w3.org/Graphics/SVG/1.1/DTD/svg11.dtd">
<!-- Creator: CorelDRAW 2017 -->
<svg xmlns="http://www.w3.org/2000/svg" xml:space="preserve" width="16.0022mm" height="13.555mm" version="1.1" style="shape-rendering:geometricPrecision; text-rendering:geometricPrecision; image-rendering:optimizeQuality; fill-rule:evenodd; clip-rule:evenodd"
viewBox="0 0 4737.31 4012.84"
 xmlns:xlink="http://www.w3.org/1999/xlink">
 <defs>
  <style type="text/css">
   <![CDATA[
    .fil0 {fill:black;fill-rule:nonzero}
   ]]>
  </style>
 </defs>
 <g id="Vrstva_x0020_1">
  <metadata id="CorelCorpID_0Corel-Layer"/>
  <path class="fil0" d="M4737.31 3160.06l-994.79 852.78 0 -568.72 -167.59 0c-528.73,0 -917.93,-236.83 -1239.26,-550.37 124.1,-145.92 236.27,-292.64 340.65,-429.97 24.16,-31.79 47.99,-63.03 71.76,-94.44 237.84,245.83 493.59,411.65 826.84,411.65l167.59 0 0 -473.67 994.79 852.75zm-994.79 -3160.06l12.49 0 982.29 842.15 -994.79 852.66 0 -477.01 -167.59 0c-546.28,0 -884.19,444.12 -1275.73,958.58 -435.27,572.42 -928.47,1220.55 -1803.48,1220.55l-495.72 0 0 -663.13 495.72 0c546.08,0 884.19,-444.62 1275.76,-958.31 435.42,-572.4 928.62,-1220.81 1803.45,-1220.81l167.59 0 0 -554.66zm-3742.52 1265.1l0 0 495.72 0c314.48,0 559.75,147.69 786.05,370.41 37.06,-47.9 74.72,-97.46 112.97,-147.31 92.28,-121.64 190.24,-249.92 296.34,-377.9 -313.3,-292.37 -690.63,-508.33 -1195.35,-508.33l-495.72 0 0 663.13z"/>
 </g>
</svg>
