<?xml version="1.0" encoding="UTF-8"?>
<!DOCTYPE svg PUBLIC "-//W3C//DTD SVG 1.1//EN" "http://www.w3.org/Graphics/SVG/1.1/DTD/svg11.dtd">
<svg xmlns="http://www.w3.org/2000/svg" xml:space="preserve" width="645.209mm" height="38.3834mm" style="shape-rendering:geometricPrecision; text-rendering:geometricPrecision; image-rendering:optimizeQuality; fill-rule:evenodd; clip-rule:evenodd"
viewBox="0 0 659132 39212"
 xmlns:xlink="http://www.w3.org/1999/xlink">
 <defs>
  <style type="text/css">
   <![CDATA[
    .fil0 {fill:#003c40;fill-rule:nonzero}
   ]]>
  </style>
 </defs>
   <path class="fil0" d="M33705 1251l0 1585 4380 0 -6925 21942 -83 0 -6591 -21942 3587 0 0 -1585 -11722 0 0 1585 2878 0 2169 7133 -4964 15142 -83 0 -8218 -22276 3587 0 0 -1585 -11722 0 0 1585 2628 0 10470 27824 3003 0 6090 -18146 5548 18146 3170 0 8844 -27824 3254 0 0 -1585 -9302 0zm25321 25321c-542,445 -1154,841 -1821,1189 -667,341 -1390,612 -2155,807 -765,195 -1571,292 -2406,299 -1425,7 -2684,-285 -3761,-869 -1078,-584 -1926,-1516 -2531,-2795 -605,-1279 -918,-2948 -925,-5013l13766 0c42,-285 76,-577 111,-883 28,-306 56,-598 69,-876 21,-285 28,-535 28,-744 -7,-1467 -243,-2739 -702,-3810 -459,-1071 -1092,-1954 -1891,-2649 -800,-695 -1710,-1210 -2739,-1550 -1029,-334 -2114,-501 -3261,-501 -1356,0 -2649,229 -3866,681 -1224,459 -2308,1140 -3261,2037 -952,904 -1703,2030 -2253,3372 -549,1342 -827,2899 -841,4672 0,1599 229,3066 688,4401 459,1328 1140,2482 2030,3455 890,973 1981,1731 3282,2260 1300,535 2788,806 4470,813 1244,-7 2357,-146 3337,-410 973,-271 1842,-619 2600,-1057 758,-431 1439,-904 2030,-1411l0 -1418zm-13599 -7842c7,-1022 111,-2023 320,-2990 202,-973 521,-1849 953,-2635 431,-786 987,-1411 1675,-1877 681,-466 1509,-702 2475,-716 737,7 1377,188 1905,535 535,348 973,806 1314,1390 341,577 591,1224 751,1926 167,709 243,1425 243,2155 0,202 -7,452 -28,737 -14,292 -35,570 -56,841 -28,271 -56,487 -83,633l-9469 0zm54229 -9135l0 1460 3671 0 -4922 15351 -83 0 -5339 -15351 3671 0 0 -1460 -11472 0 0 1460 2503 0 1335 3713 -3879 11638 -83 0 -5924 -15351 3004 0 0 -1460 -10971 0 0 1460 2545 0 7717 19606 3671 0 4714 -13682 4881 13682 3671 0 6508 -19606 2878 0 0 -1460 -8093 0zm10637 -5089c7,528 132,973 382,1342 250,368 598,647 1029,834 431,188 918,285 1467,285 549,0 1036,-97 1467,-285 431,-188 779,-466 1029,-834 250,-368 375,-813 382,-1342 -7,-542 -132,-1008 -382,-1397 -250,-382 -598,-674 -1029,-883 -431,-202 -918,-306 -1467,-306 -549,0 -1036,104 -1467,306 -431,209 -779,501 -1029,883 -250,389 -375,855 -382,1397zm5548 24486l0 -19397 -7091 0 0 1460 2503 0 0 17937 -2503 0 0 1460 9636 0 0 -1460 -2545 0zm11430 0l0 -28574 -7091 0 0 1460 2503 0 0 27114 -2503 0 0 1460 9636 0 0 -1460 -2545 0zm11638 0l0 -28574 -7091 0 0 1460 2503 0 0 27114 -2503 0 0 1460 9636 0 0 -1460 -2545 0zm21900 8343l0 -8093c591,375 1217,681 1877,925 661,236 1314,417 1961,528 647,118 1244,174 1794,174 1356,-7 2579,-278 3657,-813 1078,-535 1995,-1293 2760,-2266 758,-966 1335,-2114 1738,-3435 396,-1314 605,-2760 605,-4331 0,-2329 -320,-4297 -939,-5910 -626,-1613 -1543,-2837 -2753,-3671 -1203,-841 -2691,-1258 -4443,-1265 -466,-7 -994,49 -1585,167 -584,111 -1175,327 -1780,626 -598,299 -1154,730 -1662,1286 -508,549 -918,1265 -1231,2134l0 -3796 -7133 0 0 1460 2545 0 0 26280 -2545 0 0 1460 9636 0 0 -1460 -2503 0zm0 -19981c7,-1224 160,-2246 459,-3052 299,-813 681,-1453 1154,-1926 466,-466 973,-799 1502,-994 528,-195 1036,-292 1516,-285 1571,-7 2788,723 3636,2197 848,1467 1279,3713 1286,6730 -7,2093 -250,3810 -730,5145 -480,1335 -1154,2322 -2016,2962 -855,633 -1863,953 -3010,946 -633,0 -1265,-83 -1912,-250 -647,-167 -1272,-417 -1884,-751l0 -10721zm19356 -6299l0 17937 -2503 0 0 1460 11305 0 0 -1460 -4213 0 0 -8385c7,-1488 160,-2823 459,-4012 299,-1189 695,-2218 1203,-3073 501,-862 1064,-1543 1682,-2037 619,-501 1258,-793 1912,-890 -327,257 -549,542 -667,862 -118,313 -174,612 -167,890 14,674 229,1203 654,1585 424,382 980,577 1683,584 501,-7 939,-118 1307,-348 368,-222 647,-535 848,-918 202,-389 306,-827 306,-1321 0,-521 -104,-987 -320,-1397 -216,-417 -549,-744 -987,-987 -438,-236 -987,-362 -1655,-368 -904,7 -1773,250 -2614,744 -841,487 -1585,1182 -2225,2086 -640,904 -1112,1975 -1418,3219l0 -5631 -7091 0 0 1460 2503 0zm33705 15518c-542,445 -1154,841 -1821,1189 -667,341 -1390,612 -2155,807 -765,195 -1571,292 -2406,299 -1425,7 -2684,-285 -3761,-869 -1078,-584 -1926,-1516 -2531,-2795 -605,-1279 -918,-2948 -925,-5013l13766 0c42,-285 76,-577 111,-883 28,-306 56,-598 69,-876 21,-285 28,-535 28,-744 -7,-1467 -243,-2739 -702,-3810 -459,-1071 -1092,-1954 -1891,-2649 -800,-695 -1710,-1210 -2739,-1550 -1029,-334 -2114,-501 -3261,-501 -1356,0 -2649,229 -3866,681 -1224,459 -2308,1140 -3261,2037 -952,904 -1703,2030 -2253,3372 -549,1342 -827,2899 -841,4672 0,1599 229,3066 688,4401 459,1328 1140,2482 2030,3455 890,973 1981,1731 3282,2260 1300,535 2788,806 4470,813 1244,-7 2357,-146 3337,-410 973,-271 1842,-619 2600,-1057 758,-431 1439,-904 2030,-1411l0 -1418zm-13599 -7842c7,-1022 111,-2023 320,-2990 202,-973 521,-1849 953,-2635 431,-786 987,-1411 1675,-1877 681,-466 1509,-702 2475,-716 737,7 1377,188 1905,535 535,348 973,806 1314,1390 341,577 591,1224 751,1926 167,709 243,1425 243,2155 0,202 -7,452 -28,737 -14,292 -35,570 -56,841 -28,271 -56,487 -83,633l-9469 0zm23318 18605l0 -8093c591,375 1217,681 1877,925 661,236 1314,417 1961,528 647,118 1244,174 1794,174 1356,-7 2579,-278 3657,-813 1078,-535 1995,-1293 2760,-2266 758,-966 1335,-2114 1738,-3435 396,-1314 605,-2760 605,-4331 0,-2329 -320,-4297 -939,-5910 -626,-1613 -1543,-2837 -2753,-3671 -1203,-841 -2691,-1258 -4443,-1265 -466,-7 -994,49 -1585,167 -584,111 -1175,327 -1780,626 -598,299 -1154,730 -1662,1286 -508,549 -918,1265 -1231,2134l0 -3796 -7133 0 0 1460 2545 0 0 26280 -2545 0 0 1460 9636 0 0 -1460 -2503 0zm0 -19981c7,-1224 160,-2246 459,-3052 299,-813 681,-1453 1154,-1926 466,-466 973,-799 1502,-994 528,-195 1036,-292 1516,-285 1571,-7 2788,723 3636,2197 848,1467 1279,3713 1286,6730 -7,2093 -250,3810 -730,5145 -480,1335 -1154,2322 -2016,2962 -855,633 -1863,953 -3010,946 -633,0 -1265,-83 -1912,-250 -647,-167 -1272,-417 -1884,-751l0 -10721zm34248 0c14,-1196 -97,-2287 -320,-3282 -229,-994 -640,-1863 -1230,-2593 -591,-730 -1432,-1293 -2517,-1689 -1085,-403 -2482,-605 -4192,-612 -1293,7 -2447,160 -3455,452 -1008,299 -1856,688 -2551,1175 -695,487 -1224,1022 -1585,1613 -362,584 -542,1175 -542,1766 0,702 195,1258 584,1682 389,424 959,640 1710,654 514,-7 939,-97 1279,-271 341,-174 598,-417 765,-723 167,-306 250,-660 250,-1050 0,-396 -90,-744 -264,-1050 -174,-306 -431,-549 -765,-723 -341,-181 -765,-271 -1265,-271 188,-355 508,-674 953,-973 452,-292 1001,-528 1655,-709 647,-181 1363,-271 2148,-278 904,7 1662,125 2273,368 612,236 1099,563 1467,973 362,417 626,883 779,1404 160,521 236,1064 236,1634l0 3587c-1961,83 -3657,285 -5075,584 -1418,306 -2600,688 -3553,1161 -952,466 -1703,994 -2260,1585 -563,584 -959,1203 -1196,1856 -236,654 -354,1314 -348,1988 7,1050 236,1968 681,2753 452,786 1085,1397 1905,1835 813,438 1773,660 2878,667 911,7 1815,-160 2705,-494 890,-334 1703,-869 2447,-1599 737,-737 1342,-1710 1815,-2913l0 1710c-7,1140 271,1961 827,2468 563,508 1453,751 2677,744 716,-7 1397,-111 2044,-306 647,-202 1203,-459 1669,-779l0 -1335c-153,90 -341,174 -570,250 -229,77 -466,118 -723,125 -264,7 -501,-49 -695,-167 -202,-118 -362,-334 -473,-654 -111,-320 -167,-786 -167,-1390l0 -9177zm-4589 5465c-7,1022 -216,1905 -626,2649 -403,751 -945,1328 -1627,1738 -688,403 -1453,612 -2294,619 -619,-7 -1154,-139 -1613,-410 -466,-264 -827,-647 -1085,-1126 -257,-487 -382,-1064 -389,-1717 -7,-612 125,-1203 382,-1766 264,-570 688,-1085 1272,-1550 591,-466 1377,-848 2357,-1140 980,-299 2190,-480 3622,-549l0 3254zm11013 -11763l0 17937 -2503 0 0 1460 11305 0 0 -1460 -4213 0 0 -8385c7,-1488 160,-2823 459,-4012 299,-1189 695,-2218 1203,-3073 501,-862 1064,-1543 1682,-2037 619,-501 1258,-793 1912,-890 -327,257 -549,542 -667,862 -118,313 -174,612 -167,890 14,674 229,1203 654,1585 424,382 980,577 1683,584 501,-7 939,-118 1307,-348 368,-222 647,-535 848,-918 202,-389 306,-827 306,-1321 0,-521 -104,-987 -320,-1397 -216,-417 -549,-744 -987,-987 -438,-236 -987,-362 -1655,-368 -904,7 -1773,250 -2614,744 -841,487 -1585,1182 -2225,2086 -640,904 -1112,1975 -1418,3219l0 -5631 -7091 0 0 1460 2503 0zm33705 15518c-542,445 -1154,841 -1821,1189 -667,341 -1390,612 -2155,807 -765,195 -1571,292 -2406,299 -1425,7 -2684,-285 -3761,-869 -1078,-584 -1926,-1516 -2531,-2795 -605,-1279 -918,-2948 -925,-5013l13766 0c42,-285 76,-577 111,-883 28,-306 56,-598 69,-876 21,-285 28,-535 28,-744 -7,-1467 -243,-2739 -702,-3810 -459,-1071 -1092,-1954 -1891,-2649 -800,-695 -1710,-1210 -2739,-1550 -1029,-334 -2114,-501 -3261,-501 -1356,0 -2649,229 -3866,681 -1224,459 -2308,1140 -3261,2037 -952,904 -1703,2030 -2253,3372 -549,1342 -827,2899 -841,4672 0,1599 229,3066 688,4401 459,1328 1140,2482 2030,3455 890,973 1981,1731 3282,2260 1300,535 2788,806 4470,813 1244,-7 2357,-146 3337,-410 973,-271 1842,-619 2600,-1057 758,-431 1439,-904 2030,-1411l0 -1418zm-13599 -7842c7,-1022 111,-2023 320,-2990 202,-973 521,-1849 953,-2635 431,-786 987,-1411 1675,-1877 681,-466 1509,-702 2475,-716 737,7 1377,188 1905,535 535,348 973,806 1314,1390 341,577 591,1224 751,1926 167,709 243,1425 243,2155 0,202 -7,452 -28,737 -14,292 -35,570 -56,841 -28,271 -56,487 -83,633l-9469 0zm35958 11930l2086 0c-438,1286 -897,2371 -1370,3247 -480,876 -959,1585 -1453,2127 -487,549 -966,959 -1432,1244 -473,285 -911,480 -1328,577 -417,104 -799,153 -1133,146 -209,-7 -403,-28 -584,-76 -181,-42 -334,-90 -459,-132 334,-132 584,-306 772,-521 181,-216 306,-431 375,-654 77,-229 104,-417 104,-577 -7,-445 -111,-793 -313,-1057 -202,-264 -459,-452 -779,-570 -327,-111 -667,-167 -1036,-167 -368,0 -709,77 -1022,236 -313,160 -570,396 -765,709 -195,313 -292,709 -299,1182 0,494 146,953 445,1384 292,431 737,779 1321,1043 591,264 1321,403 2197,410 1411,-7 2628,-362 3657,-1064 1029,-702 1933,-1703 2698,-3003 765,-1300 1453,-2851 2072,-4651l6633 -19439 2878 0 0 -1460 -8385 0 0 1460 3921 0 -5089 15351 -83 0 -5798 -15351 3754 0 0 -1460 -11847 0 0 1460 2545 0 7717 19606zm33872 -10637c0,1550 -222,2983 -654,4297 -438,1314 -1085,2461 -1940,3441 -862,980 -1919,1738 -3177,2280 -1265,542 -2718,820 -4366,827 -1648,-7 -3101,-285 -4366,-827 -1258,-542 -2315,-1300 -3170,-2280 -862,-980 -1509,-2127 -1940,-3441 -438,-1314 -660,-2746 -660,-4297 0,-1550 222,-2983 660,-4297 431,-1314 1078,-2461 1940,-3441 855,-980 1912,-1738 3170,-2280 1265,-542 2718,-820 4366,-827 1648,7 3101,285 4366,827 1258,542 2315,1300 3177,2280 855,980 1502,2127 1940,3441 431,1314 654,2746 654,4297zm-15434 0c0,2037 181,3761 549,5173 368,1411 945,2489 1724,3226 786,737 1787,1105 3024,1112 1238,-7 2239,-375 3024,-1105 779,-730 1356,-1801 1724,-3212 368,-1418 549,-3142 549,-5194 0,-2051 -181,-3775 -549,-5193 -368,-1411 -946,-2482 -1724,-3212 -786,-737 -1787,-1099 -3024,-1105 -1238,7 -2239,375 -3024,1112 -779,737 -1356,1815 -1724,3226 -368,1411 -549,3136 -549,5173zm33121 10429l7133 0 0 -1460 -2545 0 0 -19397 -8134 0 0 1460 3546 0 0 10011c-7,1196 -160,2239 -459,3122 -299,890 -695,1620 -1189,2204 -494,577 -1036,1008 -1627,1300 -591,285 -1182,424 -1773,424 -1154,7 -2044,-320 -2677,-966 -626,-647 -946,-1648 -953,-2996l0 -14558 -7133 0 0 1460 2545 0 0 13224c7,1168 167,2169 480,3003 306,834 744,1516 1300,2044 556,528 1196,918 1933,1168 737,250 1530,375 2378,375 994,7 1954,-195 2878,-605 925,-403 1759,-1043 2503,-1926 744,-876 1342,-2023 1794,-3434l0 5548zm21942 -20857l-2503 0 0 1460 2503 0 0 17937 -2503 0 0 1460 11096 0 0 -1460 -4005 0 0 -17937 4005 0 0 -1460 -4005 0 0 -4839c-7,-806 70,-1495 229,-2051 160,-556 417,-980 779,-1265 361,-292 848,-438 1453,-438 167,0 334,21 494,56 153,42 299,90 424,153 -327,118 -584,285 -772,501 -181,216 -306,431 -375,654 -69,222 -104,410 -104,556 7,452 111,820 313,1085 202,271 459,466 779,577 327,118 667,174 1036,174 368,0 709,-76 1022,-236 313,-160 570,-403 765,-723 195,-320 292,-723 299,-1210 0,-494 -146,-932 -445,-1321 -292,-389 -737,-695 -1321,-918 -591,-229 -1321,-341 -2197,-348 -1488,7 -2753,278 -3789,820 -1036,535 -1821,1321 -2364,2336 -535,1022 -806,2246 -813,3685l0 2753zm30785 10429c0,1550 -222,2983 -654,4297 -438,1314 -1085,2461 -1940,3441 -862,980 -1919,1738 -3177,2280 -1265,542 -2718,820 -4366,827 -1648,-7 -3101,-285 -4366,-827 -1258,-542 -2315,-1300 -3170,-2280 -862,-980 -1509,-2127 -1940,-3441 -438,-1314 -660,-2746 -660,-4297 0,-1550 222,-2983 660,-4297 431,-1314 1078,-2461 1940,-3441 855,-980 1912,-1738 3170,-2280 1265,-542 2718,-820 4366,-827 1648,7 3101,285 4366,827 1258,542 2315,1300 3177,2280 855,980 1502,2127 1940,3441 431,1314 654,2746 654,4297zm-15434 0c0,2037 181,3761 549,5173 368,1411 945,2489 1724,3226 786,737 1787,1105 3024,1112 1238,-7 2239,-375 3024,-1105 779,-730 1356,-1801 1724,-3212 368,-1418 549,-3142 549,-5194 0,-2051 -181,-3775 -549,-5193 -368,-1411 -946,-2482 -1724,-3212 -786,-737 -1787,-1099 -3024,-1105 -1238,7 -2239,375 -3024,1112 -779,737 -1356,1815 -1724,3226 -368,1411 -549,3136 -549,5173zm20315 -8969l0 17937 -2503 0 0 1460 11305 0 0 -1460 -4213 0 0 -8385c7,-1488 160,-2823 459,-4012 299,-1189 695,-2218 1203,-3073 501,-862 1064,-1543 1682,-2037 619,-501 1258,-793 1912,-890 -327,257 -549,542 -667,862 -118,313 -174,612 -167,890 14,674 229,1203 654,1585 424,382 980,577 1683,584 501,-7 939,-118 1307,-348 368,-222 647,-535 848,-918 202,-389 306,-827 306,-1321 0,-521 -104,-987 -320,-1397 -216,-417 -549,-744 -987,-987 -438,-236 -987,-362 -1655,-368 -904,7 -1773,250 -2614,744 -841,487 -1585,1182 -2225,2086 -640,904 -1112,1975 -1418,3219l0 -5631 -7091 0 0 1460 2503 0zm43091 6299c14,-1196 -97,-2287 -320,-3282 -229,-994 -640,-1863 -1230,-2593 -591,-730 -1432,-1293 -2517,-1689 -1085,-403 -2482,-605 -4192,-612 -1293,7 -2447,160 -3455,452 -1008,299 -1856,688 -2551,1175 -695,487 -1224,1022 -1585,1613 -362,584 -542,1175 -542,1766 0,702 195,1258 584,1682 389,424 959,640 1710,654 514,-7 939,-97 1279,-271 341,-174 598,-417 765,-723 167,-306 250,-660 250,-1050 0,-396 -90,-744 -264,-1050 -174,-306 -431,-549 -765,-723 -341,-181 -765,-271 -1265,-271 188,-355 508,-674 953,-973 452,-292 1001,-528 1655,-709 647,-181 1363,-271 2148,-278 904,7 1662,125 2273,368 612,236 1099,563 1467,973 362,417 626,883 779,1404 160,521 236,1064 236,1634l0 3587c-1961,83 -3657,285 -5075,584 -1418,306 -2600,688 -3553,1161 -952,466 -1703,994 -2260,1585 -563,584 -959,1203 -1196,1856 -236,654 -354,1314 -348,1988 7,1050 236,1968 681,2753 452,786 1085,1397 1905,1835 813,438 1773,660 2878,667 911,7 1815,-160 2705,-494 890,-334 1703,-869 2447,-1599 737,-737 1342,-1710 1815,-2913l0 1710c-7,1140 271,1961 827,2468 563,508 1453,751 2677,744 716,-7 1397,-111 2044,-306 647,-202 1203,-459 1669,-779l0 -1335c-153,90 -341,174 -570,250 -229,77 -466,118 -723,125 -264,7 -501,-49 -695,-167 -202,-118 -362,-334 -473,-654 -111,-320 -167,-786 -167,-1390l0 -9177zm-4589 5465c-7,1022 -216,1905 -626,2649 -403,751 -945,1328 -1627,1738 -688,403 -1453,612 -2294,619 -619,-7 -1154,-139 -1613,-410 -466,-264 -827,-647 -1085,-1126 -257,-487 -382,-1064 -389,-1717 -7,-612 125,-1203 382,-1766 264,-570 688,-1085 1272,-1550 591,-466 1377,-848 2357,-1140 980,-299 2190,-480 3622,-549l0 3254zm23360 -20941l0 8927c-591,-375 -1217,-681 -1877,-925 -661,-236 -1314,-417 -1961,-528 -647,-118 -1244,-174 -1794,-174 -1370,7 -2593,278 -3671,813 -1085,535 -2002,1293 -2760,2260 -758,973 -1335,2120 -1731,3441 -396,1314 -598,2760 -598,4331 0,2329 320,4297 939,5910 626,1613 1536,2837 2739,3671 1203,841 2677,1258 4415,1265 480,7 1008,-49 1599,-167 591,-118 1182,-327 1787,-626 598,-306 1154,-730 1662,-1286 514,-549 932,-1265 1251,-2134l0 3796 7133 0 0 -1460 -2545 0 0 -28574 -7133 0 0 1460 2545 0zm0 20816c-7,1224 -167,2246 -466,3052 -299,813 -688,1453 -1168,1919 -473,473 -980,806 -1516,1001 -535,195 -1043,292 -1523,285 -1550,7 -2753,-723 -3594,-2197 -848,-1467 -1272,-3713 -1286,-6730 7,-2093 250,-3810 730,-5145 480,-1335 1154,-2322 2016,-2962 855,-633 1863,-953 3010,-946 633,0 1265,83 1912,250 647,167 1272,417 1884,751l0 10721zm42674 6299l0 -13224c-7,-1168 -167,-2169 -480,-3003 -320,-834 -758,-1516 -1321,-2044 -556,-528 -1210,-918 -1947,-1168 -737,-250 -1537,-375 -2385,-375 -959,-7 -1898,195 -2823,605 -932,410 -1780,1043 -2545,1905 -765,862 -1377,1968 -1849,3330 -90,-1370 -417,-2489 -966,-3351 -549,-862 -1272,-1488 -2155,-1891 -883,-403 -1877,-605 -2969,-598 -980,-7 -1933,195 -2851,598 -918,403 -1752,1043 -2503,1919 -744,869 -1356,2009 -1822,3407l0 -5506 -7091 0 0 1460 2503 0 0 17937 -2503 0 0 1460 9636 0 0 -1460 -2545 0 0 -10011c7,-1196 160,-2239 459,-3129 299,-883 695,-1613 1189,-2197 494,-577 1036,-1015 1627,-1300 591,-285 1182,-424 1773,-424 1175,-7 2079,320 2711,966 633,647 952,1648 959,2996l0 13098 -2419 0 0 1460 9553 0 0 -1460 -2545 0 0 -10011c7,-1196 160,-2239 459,-3129 299,-883 695,-1613 1189,-2197 494,-577 1036,-1015 1627,-1300 591,-285 1182,-424 1773,-424 1175,-7 2079,320 2711,966 633,647 953,1648 959,2996l0 13098 -2420 0 0 1460 9553 0 0 -1460 -2545 0z"/>
   <path class="fil0" d="M539787 4505c7,528 132,973 382,1342 250,368 598,647 1029,834 431,188 918,285 1467,285 549,0 1036,-97 1467,-285 431,-188 779,-466 1029,-834 250,-368 375,-813 382,-1342 -7,-542 -132,-1008 -382,-1397 -250,-382 -598,-674 -1029,-883 -431,-202 -918,-306 -1467,-306 -549,0 -1036,104 -1467,306 -431,209 -779,501 -1029,883 -250,389 -375,855 -382,1397zm5548 24486l0 -19397 -7091 0 0 1460 2503 0 0 17937 -2503 0 0 1460 9636 0 0 -1460 -2545 0zm6925 -17937l0 17937 -2503 0 0 1460 11305 0 0 -1460 -4213 0 0 -8385c7,-1488 160,-2823 459,-4012 299,-1189 695,-2218 1203,-3073 501,-862 1064,-1543 1682,-2037 619,-501 1258,-793 1912,-890 -327,257 -549,542 -667,862 -118,313 -174,612 -167,890 14,674 229,1203 654,1585 424,382 980,577 1683,584 501,-7 939,-118 1307,-348 368,-222 647,-535 848,-918 202,-389 306,-827 306,-1321 0,-521 -104,-987 -320,-1397 -216,-417 -549,-744 -987,-987 -438,-236 -987,-362 -1655,-368 -904,7 -1773,250 -2614,744 -841,487 -1585,1182 -2225,2086 -640,904 -1112,1975 -1418,3219l0 -5631 -7091 0 0 1460 2503 0zm32496 6299c14,-1196 -97,-2287 -320,-3282 -229,-994 -640,-1863 -1230,-2593 -591,-730 -1432,-1293 -2517,-1689 -1085,-403 -2482,-605 -4192,-612 -1293,7 -2447,160 -3455,452 -1008,299 -1856,688 -2551,1175 -695,487 -1224,1022 -1585,1613 -362,584 -542,1175 -542,1766 0,702 195,1258 584,1682 389,424 959,640 1710,654 514,-7 939,-97 1279,-271 341,-174 598,-417 765,-723 167,-306 250,-660 250,-1050 0,-396 -90,-744 -264,-1050 -174,-306 -431,-549 -765,-723 -341,-181 -765,-271 -1265,-271 188,-355 508,-674 953,-973 452,-292 1001,-528 1655,-709 647,-181 1363,-271 2148,-278 904,7 1662,125 2273,368 612,236 1099,563 1467,973 362,417 626,883 779,1404 160,521 236,1064 236,1634l0 3587c-1961,83 -3657,285 -5075,584 -1418,306 -2600,688 -3553,1161 -952,466 -1703,994 -2260,1585 -563,584 -959,1203 -1196,1856 -236,654 -354,1314 -348,1988 7,1050 236,1968 681,2753 452,786 1085,1397 1905,1835 813,438 1773,660 2878,667 911,7 1815,-160 2705,-494 890,-334 1703,-869 2447,-1599 737,-737 1342,-1710 1815,-2913l0 1710c-7,1140 271,1961 827,2468 563,508 1453,751 2677,744 716,-7 1397,-111 2044,-306 647,-202 1203,-459 1669,-779l0 -1335c-153,90 -341,174 -570,250 -229,77 -466,118 -723,125 -264,7 -501,-49 -695,-167 -202,-118 -362,-334 -473,-654 -111,-320 -167,-786 -167,-1390l0 -9177zm-4589 5465c-7,1022 -216,1905 -626,2649 -403,751 -945,1328 -1627,1738 -688,403 -1453,612 -2294,619 -619,-7 -1154,-139 -1613,-410 -466,-264 -827,-647 -1085,-1126 -257,-487 -382,-1064 -389,-1717 -7,-612 125,-1203 382,-1766 264,-570 688,-1085 1272,-1550 591,-466 1377,-848 2357,-1140 980,-299 2190,-480 3622,-549l0 3254zm15142 -11763l4964 0 0 -1460 -4964 0 0 -5423 -1543 0 -3045 5423 -2545 0 0 1460 2545 0 0 15309c7,1175 215,2086 619,2746 410,654 966,1112 1682,1377 709,264 1530,389 2454,382 959,0 1835,-76 2635,-222 793,-146 1516,-362 2162,-654l0 -1335c-501,167 -959,292 -1390,375 -424,83 -820,125 -1196,125 -619,0 -1105,-118 -1453,-341 -348,-229 -584,-570 -723,-1015 -139,-445 -209,-994 -202,-1648l0 -15101zm8009 -6549c7,528 132,973 382,1342 250,368 598,647 1029,834 431,188 918,285 1467,285 549,0 1036,-97 1467,-285 431,-188 779,-466 1029,-834 250,-368 375,-813 382,-1342 -7,-542 -132,-1008 -382,-1397 -250,-382 -598,-674 -1029,-883 -431,-202 -918,-306 -1467,-306 -549,0 -1036,104 -1467,306 -431,209 -779,501 -1029,883 -250,389 -375,855 -382,1397zm5548 24486l0 -19397 -7091 0 0 1460 2503 0 0 17937 -2503 0 0 1460 9636 0 0 -1460 -2545 0zm24945 -8969c0,1550 -222,2983 -654,4297 -438,1314 -1085,2461 -1940,3441 -862,980 -1919,1738 -3177,2280 -1265,542 -2718,820 -4366,827 -1648,-7 -3101,-285 -4366,-827 -1258,-542 -2315,-1300 -3170,-2280 -862,-980 -1509,-2127 -1940,-3441 -438,-1314 -660,-2746 -660,-4297 0,-1550 222,-2983 660,-4297 431,-1314 1078,-2461 1940,-3441 855,-980 1912,-1738 3170,-2280 1265,-542 2718,-820 4366,-827 1648,7 3101,285 4366,827 1258,542 2315,1300 3177,2280 855,980 1502,2127 1940,3441 431,1314 654,2746 654,4297zm-15434 0c0,2037 181,3761 549,5173 368,1411 945,2489 1724,3226 786,737 1787,1105 3024,1112 1238,-7 2239,-375 3024,-1105 779,-730 1356,-1801 1724,-3212 368,-1418 549,-3142 549,-5194 0,-2051 -181,-3775 -549,-5193 -368,-1411 -946,-2482 -1724,-3212 -786,-737 -1787,-1099 -3024,-1105 -1238,7 -2239,375 -3024,1112 -779,737 -1356,1815 -1724,3226 -368,1411 -549,3136 -549,5173zm24904 -10429l-7091 0 0 1460 2503 0 0 17937 -2503 0 0 1460 9636 0 0 -1460 -2545 0 0 -10011c7,-1196 160,-2239 459,-3129 299,-883 695,-1613 1189,-2197 494,-577 1036,-1015 1627,-1300 591,-285 1182,-424 1773,-424 1175,-7 2079,320 2711,966 633,647 952,1648 959,2996l0 13098 -2419 0 0 1460 9553 0 0 -1460 -2545 0 0 -13224c-7,-1168 -167,-2169 -480,-3003 -313,-834 -744,-1516 -1300,-2044 -563,-528 -1210,-918 -1954,-1168 -737,-250 -1536,-375 -2399,-375 -980,-7 -1933,195 -2851,598 -918,403 -1752,1043 -2503,1919 -744,869 -1356,2009 -1822,3407l0 -5506z"/>
</svg>
