<?xml version="1.0" encoding="UTF-8"?>
<!DOCTYPE svg PUBLIC "-//W3C//DTD SVG 1.1//EN" "http://www.w3.org/Graphics/SVG/1.1/DTD/svg11.dtd">
<svg xmlns="http://www.w3.org/2000/svg" xml:space="preserve" width="621.105mm" height="53.045mm" style="shape-rendering:geometricPrecision; text-rendering:geometricPrecision; image-rendering:optimizeQuality; fill-rule:evenodd; clip-rule:evenodd"
viewBox="0 0 630550 53852"
 xmlns:xlink="http://www.w3.org/1999/xlink">
 <defs>
  <style type="text/css">
   <![CDATA[
    .fil0 {fill:#003c40;fill-rule:nonzero}
   ]]>
  </style>
 </defs>
  <path class="fil0" d="M0 1285l0 2219 3504 0 0 36446 -3504 0 0 2219 15828 0 0 -2219 -5549 0 0 -15128 7827 0c2278,-10 4244,-302 5919,-896 1665,-584 3037,-1412 4127,-2473 1090,-1061 1888,-2317 2424,-3757 526,-1441 789,-3018 789,-4731 0,-1704 -263,-3261 -789,-4682 -535,-1421 -1334,-2658 -2424,-3699 -1090,-1042 -2463,-1850 -4127,-2424 -1674,-574 -3641,-866 -5919,-876l-18106 0zm10280 21377l0 -19157 6483 0c1840,10 3310,399 4419,1168 1110,779 1908,1879 2395,3300 487,1431 730,3135 720,5111 10,1957 -234,3650 -720,5081 -487,1431 -1285,2531 -2395,3310 -1110,779 -2580,1178 -4419,1188l-6483 0zm42747 -21377l-584 -935 -8761 5257 -8703 -5257 -584 935 5490 6425c598,699 1088,1268 1528,1655 446,392 855,666 1226,818 368,150 740,214 1100,214 360,0 732,-64 1100,-214 371,-152 781,-426 1227,-818 440,-387 938,-957 1528,-1655l5432 -6425zm-8988 11681l-9929 0 0 2044 3504 0 0 25115 -3504 0 0 2044 15828 0 0 -2044 -5899 0 0 -11740c10,-2073 224,-3952 643,-5617 419,-1665 973,-3105 1674,-4303 711,-1207 1499,-2161 2366,-2852 866,-701 1762,-1110 2677,-1246 -458,360 -769,759 -934,1207 -166,438 -243,857 -234,1246 19,944 321,1684 915,2219 594,535 1373,808 2356,818 701,-10 1314,-165 1830,-487 516,-312 905,-750 1188,-1285 282,-545 428,-1158 428,-1850 0,-730 -146,-1382 -448,-1957 -302,-584 -759,-1042 -1382,-1382 -613,-331 -1382,-506 -2317,-516 -944,0 -1869,204 -2774,594 -905,389 -1752,954 -2551,1694 -789,730 -1480,1626 -2073,2667 -594,1042 -1051,2210 -1363,3514l0 -7885zm17347 -7126c10,740 185,1363 535,1879 350,516 837,905 1441,1168 604,263 1285,399 2054,399 769,0 1450,-136 2054,-399 604,-263 1090,-652 1441,-1168 350,-516 526,-1139 535,-1879 -10,-759 -185,-1412 -535,-1957 -350,-535 -837,-944 -1441,-1236 -604,-282 -1285,-428 -2054,-428 -769,0 -1450,146 -2054,428 -604,292 -1090,701 -1441,1236 -350,545 -526,1197 -535,1957zm7768 34285l0 -27159 -9929 0 0 2044 3504 0 0 25115 -3504 0 0 2044 13492 0 0 -2044 -3563 0zm15536 11681l0 -11331c827,526 1704,954 2628,1295 925,331 1840,584 2745,740 905,165 1743,243 2512,243 1898,-10 3612,-389 5120,-1139 1509,-750 2794,-1811 3865,-3173 1061,-1353 1869,-2959 2434,-4809 555,-1840 847,-3865 847,-6065 0,-3261 -448,-6016 -1314,-8274 -876,-2258 -2161,-3972 -3855,-5140 -1684,-1178 -3767,-1762 -6220,-1772 -652,-10 -1392,68 -2219,234 -818,156 -1645,458 -2492,876 -837,419 -1616,1022 -2327,1801 -711,769 -1285,1772 -1723,2988l0 -5315 -9988 0 0 2044 3563 0 0 36797 -3563 0 0 2044 13492 0 0 -2044 -3504 0zm0 -27977c10,-1713 224,-3144 643,-4273 419,-1139 954,-2035 1616,-2696 652,-652 1363,-1119 2103,-1392 740,-273 1450,-409 2122,-399 2200,-10 3904,1012 5091,3076 1188,2054 1791,5198 1801,9423 -10,2930 -350,5335 -1022,7204 -672,1869 -1616,3251 -2823,4147 -1197,886 -2609,1334 -4215,1324 -886,0 -1772,-117 -2677,-350 -905,-234 -1781,-584 -2638,-1051l0 -15011zm27101 -8820l0 25115 -3504 0 0 2044 15828 0 0 -2044 -5899 0 0 -11740c10,-2083 224,-3952 643,-5617 419,-1665 973,-3105 1684,-4303 701,-1207 1489,-2161 2356,-2852 866,-701 1762,-1110 2677,-1246 -458,360 -769,759 -934,1207 -166,438 -243,857 -234,1246 19,944 321,1684 915,2219 594,535 1373,808 2356,818 701,-10 1314,-165 1830,-487 516,-312 905,-750 1188,-1285 282,-545 428,-1158 428,-1850 0,-730 -146,-1382 -448,-1957 -302,-584 -769,-1042 -1382,-1382 -613,-331 -1382,-506 -2317,-516 -1265,10 -2482,350 -3660,1042 -1178,681 -2219,1655 -3115,2920 -896,1265 -1558,2765 -1986,4507l0 -7885 -9929 0 0 2044 3504 0zm45499 8820c19,-1674 -136,-3203 -448,-4595 -321,-1392 -896,-2609 -1723,-3631 -827,-1022 -2005,-1811 -3524,-2365 -1519,-565 -3475,-847 -5870,-857 -1811,10 -3427,224 -4838,633 -1412,419 -2599,964 -3573,1645 -973,681 -1713,1431 -2220,2258 -506,818 -759,1645 -759,2473 0,983 273,1762 818,2356 545,594 1343,896 2395,915 720,-10 1314,-136 1791,-380 477,-243 837,-584 1071,-1012 234,-428 350,-925 350,-1470 0,-555 -127,-1042 -370,-1470 -243,-428 -604,-769 -1071,-1012 -477,-253 -1071,-380 -1772,-380 263,-496 711,-944 1334,-1363 633,-409 1402,-740 2317,-993 905,-253 1908,-380 3008,-389 1265,10 2327,175 3183,516 857,331 1538,789 2054,1363 506,584 876,1236 1090,1966 224,730 331,1489 331,2288l0 5023c-2745,117 -5120,399 -7106,818 -1986,428 -3641,964 -4974,1626 -1334,652 -2385,1392 -3164,2219 -789,818 -1343,1684 -1674,2599 -331,915 -497,1840 -487,2784 10,1470 331,2755 954,3855 633,1100 1519,1957 2667,2570 1139,613 2482,925 4030,934 1275,10 2541,-224 3787,-691 1246,-467 2385,-1217 3427,-2239 1032,-1032 1879,-2395 2541,-4079l0 2395c-10,1596 380,2745 1158,3456 789,711 2034,1051 3748,1042 1003,-10 1957,-156 2862,-428 905,-282 1684,-643 2336,-1090l0 -1869c-214,126 -477,243 -798,350 -321,107 -652,165 -1012,175 -370,10 -701,-68 -973,-234 -282,-166 -506,-467 -662,-915 -156,-448 -234,-1100 -234,-1947l0 -12850zm-6425 7651c-10,1431 -302,2667 -876,3709 -565,1051 -1324,1859 -2278,2434 -964,565 -2035,857 -3212,866 -866,-10 -1616,-195 -2258,-574 -652,-370 -1158,-905 -1519,-1577 -360,-681 -535,-1489 -545,-2404 -10,-857 175,-1684 535,-2473 370,-798 964,-1519 1781,-2171 827,-652 1927,-1188 3300,-1597 1373,-419 3066,-672 5072,-769l0 4556zm27860 10981l-5140 0 -10805 -27451 -3563 0 0 -2044 16588 0 0 2044 -5315 0 8177 21494 117 0 7126 -21494 -5490 0 0 -2044 11740 0 0 2044 -4030 0 -9404 27451zm19041 -33350l584 934 7242 -3329c1275,-526 2278,-1110 3018,-1772 740,-662 1110,-1411 1129,-2258 -10,-516 -146,-973 -399,-1373 -263,-399 -604,-720 -1032,-954 -419,-234 -876,-360 -1373,-360 -574,-10 -1207,214 -1888,691 -691,477 -1480,1275 -2375,2404l-4906 6016zm9170 33058l0 -2044 -3563 0 0 -27159 -9929 0 0 2044 3504 0 0 25115 -3504 0 0 2044 13492 0zm49821 -2044l0 -18515c-10,-1635 -234,-3037 -672,-4205 -448,-1168 -1061,-2122 -1850,-2862 -779,-740 -1694,-1285 -2726,-1635 -1032,-350 -2151,-526 -3339,-526 -1343,-10 -2658,273 -3952,847 -1304,574 -2492,1460 -3563,2667 -1071,1207 -1927,2755 -2589,4663 -126,-1918 -584,-3485 -1353,-4692 -769,-1207 -1781,-2083 -3018,-2648 -1236,-565 -2628,-847 -4157,-837 -1373,-10 -2706,273 -3991,837 -1285,565 -2453,1460 -3504,2687 -1042,1217 -1898,2813 -2551,4770l0 -7710 -9929 0 0 2044 3504 0 0 25115 -3504 0 0 2044 13492 0 0 -2044 -3563 0 0 -14018c10,-1674 224,-3134 643,-4381 419,-1236 973,-2258 1665,-3076 691,-808 1450,-1421 2278,-1820 827,-399 1655,-594 2482,-594 1645,-10 2911,448 3796,1353 886,905 1334,2307 1343,4196l0 18340 -3388 0 0 2044 13375 0 0 -2044 -3563 0 0 -14018c10,-1674 224,-3134 642,-4381 419,-1236 973,-2258 1665,-3076 691,-808 1450,-1421 2278,-1820 827,-399 1655,-594 2482,-594 1645,-10 2911,448 3796,1353 886,905 1334,2307 1343,4196l0 18340 -3388 0 0 2044 13375 0 0 -2044 -3563 0zm32065 -3388c-759,623 -1616,1178 -2551,1665 -934,477 -1947,857 -3018,1129 -1071,272 -2200,409 -3368,419 -1996,10 -3757,-399 -5266,-1217 -1509,-818 -2696,-2122 -3543,-3913 -847,-1791 -1285,-4127 -1295,-7019l19274 0c58,-399 107,-808 156,-1236 39,-428 78,-837 97,-1227 29,-399 39,-750 39,-1042 -10,-2054 -341,-3835 -983,-5335 -643,-1499 -1528,-2735 -2648,-3709 -1119,-973 -2395,-1694 -3835,-2171 -1441,-467 -2959,-701 -4565,-701 -1898,0 -3709,321 -5412,954 -1713,642 -3232,1596 -4565,2852 -1334,1265 -2385,2842 -3154,4721 -769,1879 -1158,4059 -1178,6542 0,2239 321,4293 964,6162 643,1859 1597,3475 2842,4838 1246,1363 2774,2424 4595,3164 1820,750 3903,1129 6259,1139 1743,-10 3300,-204 4673,-574 1363,-380 2580,-866 3641,-1480 1061,-604 2015,-1265 2842,-1976l0 -1986zm-19041 -10980c10,-1431 156,-2833 448,-4186 282,-1363 730,-2589 1334,-3689 604,-1100 1382,-1976 2346,-2628 954,-652 2112,-983 3465,-1003 1032,10 1927,263 2667,750 750,487 1363,1129 1840,1947 477,808 827,1713 1051,2696 234,993 341,1996 341,3018 0,282 -10,633 -39,1032 -19,409 -49,798 -78,1178 -39,380 -78,681 -117,886l-13258 0zm55545 16704l-5140 0 -10805 -27451 -3563 0 0 -2044 16588 0 0 2044 -5315 0 8177 21494 117 0 7126 -21494 -5490 0 0 -2044 11740 0 0 2044 -4030 0 -9404 27451zm25758 -33350l584 934 7242 -3329c1275,-526 2278,-1110 3018,-1772 740,-662 1110,-1411 1129,-2258 -10,-516 -146,-973 -399,-1373 -263,-399 -604,-720 -1032,-954 -419,-234 -876,-360 -1373,-360 -574,-10 -1207,214 -1888,691 -691,477 -1480,1275 -2375,2404l-4906 6016zm12149 14719c19,-1674 -136,-3203 -448,-4595 -321,-1392 -896,-2609 -1723,-3631 -827,-1022 -1996,-1811 -3524,-2365 -1519,-565 -3475,-847 -5870,-857 -1811,10 -3427,224 -4838,633 -1402,419 -2599,964 -3573,1645 -973,681 -1713,1431 -2220,2258 -506,818 -759,1645 -759,2473 0,983 273,1762 818,2356 545,594 1343,896 2395,915 720,-10 1314,-136 1791,-380 477,-243 837,-584 1071,-1012 234,-428 350,-925 350,-1470 0,-555 -127,-1042 -370,-1470 -243,-428 -594,-769 -1071,-1012 -477,-253 -1071,-370 -1772,-380 263,-496 711,-944 1334,-1363 633,-409 1402,-750 2317,-993 905,-253 1908,-380 3008,-389 1265,10 2327,175 3183,516 857,331 1538,789 2054,1363 506,584 876,1236 1100,1966 214,730 331,1489 321,2288l0 5023c-2745,127 -5111,399 -7106,818 -1986,428 -3641,964 -4974,1626 -1334,652 -2385,1392 -3164,2219 -789,818 -1343,1684 -1674,2599 -331,915 -497,1840 -487,2784 10,1470 331,2755 954,3855 633,1100 1519,1957 2667,2570 1139,613 2482,925 4030,934 1275,10 2541,-224 3787,-691 1246,-467 2385,-1207 3427,-2239 1042,-1032 1888,-2395 2541,-4079l0 2395c-10,1596 380,2745 1158,3456 789,711 2034,1051 3748,1042 1003,-10 1957,-156 2862,-428 905,-282 1684,-643 2336,-1090l0 -1869c-214,126 -477,243 -798,350 -321,107 -652,165 -1012,175 -370,10 -701,-68 -973,-234 -282,-166 -506,-467 -662,-915 -156,-448 -234,-1100 -234,-1947l0 -12850zm-6425 7651c-10,1431 -302,2667 -866,3709 -574,1051 -1334,1859 -2288,2434 -964,565 -2035,857 -3212,866 -866,-10 -1616,-195 -2258,-574 -652,-370 -1158,-896 -1519,-1577 -360,-681 -535,-1480 -545,-2404 -10,-857 175,-1684 535,-2473 370,-798 964,-1519 1781,-2171 827,-652 1927,-1188 3300,-1597 1373,-419 3066,-672 5072,-769l0 4556zm12733 11273l1227 0 526 -4030c837,818 1723,1480 2638,2005 915,535 1830,944 2745,1236 905,292 1762,497 2580,623 808,117 1519,165 2142,165 2307,0 4303,-350 5967,-1032 1674,-691 2969,-1704 3874,-3037 905,-1334 1363,-2979 1373,-4926 -19,-1412 -321,-2609 -905,-3602 -584,-983 -1363,-1830 -2336,-2521 -973,-691 -2035,-1304 -3193,-1820 -1158,-516 -2327,-1012 -3485,-1480 -1158,-467 -2219,-973 -3193,-1509 -973,-535 -1752,-1168 -2336,-1898 -584,-720 -886,-1606 -905,-2648 -10,-711 165,-1382 496,-2015 341,-623 886,-1129 1635,-1528 740,-389 1733,-594 2950,-604 1246,0 2346,282 3300,857 964,574 1811,1431 2550,2570 740,1139 1402,2570 1976,4283l1752 0 0 -9462 -1110 0 -526 3621c-847,-905 -1781,-1626 -2774,-2161 -1003,-526 -2005,-905 -2988,-1129 -993,-224 -1898,-341 -2706,-331 -1850,10 -3456,214 -4809,633 -1353,419 -2473,1003 -3349,1743 -876,750 -1528,1616 -1957,2599 -419,993 -633,2054 -633,3203 19,1499 311,2765 896,3806 574,1042 1343,1918 2297,2628 964,711 2005,1324 3154,1840 1139,516 2288,1003 3427,1450 1149,448 2200,925 3154,1431 954,516 1723,1129 2297,1830 584,711 876,1577 896,2609 -10,1110 -253,2025 -740,2735 -487,720 -1149,1246 -1986,1597 -837,341 -1801,516 -2881,516 -1081,-10 -2083,-214 -3018,-623 -934,-409 -1781,-964 -2551,-1674 -769,-711 -1460,-1528 -2064,-2463 -604,-925 -1110,-1908 -1538,-2950l-1869 0 0 9462zm51048 -29788l-9929 0 0 2044 3504 0 0 25115 -3504 0 0 2044 13492 0 0 -2044 -3563 0 0 -14018c10,-1674 224,-3134 643,-4381 419,-1236 973,-2258 1665,-3076 691,-808 1450,-1421 2278,-1820 827,-399 1655,-594 2482,-594 1645,-10 2911,448 3796,1353 886,905 1334,2307 1343,4196l0 18340 -3388 0 0 2044 13375 0 0 -2044 -3563 0 0 -18515c-10,-1635 -234,-3037 -672,-4205 -438,-1168 -1042,-2122 -1820,-2862 -789,-740 -1694,-1285 -2735,-1635 -1032,-350 -2151,-526 -3359,-526 -1373,-10 -2706,273 -3991,837 -1285,565 -2453,1460 -3504,2687 -1042,1217 -1898,2813 -2551,4770l0 -7710zm48653 10864c19,-1674 -136,-3203 -448,-4595 -321,-1392 -896,-2609 -1723,-3631 -827,-1022 -2005,-1811 -3524,-2365 -1519,-565 -3475,-847 -5870,-857 -1811,10 -3427,224 -4838,633 -1412,419 -2599,964 -3573,1645 -973,681 -1713,1431 -2220,2258 -506,818 -759,1645 -759,2473 0,983 273,1762 818,2356 545,594 1343,896 2395,915 720,-10 1314,-136 1791,-380 477,-243 837,-584 1071,-1012 234,-428 350,-925 350,-1470 0,-555 -127,-1042 -370,-1470 -243,-428 -604,-769 -1071,-1012 -477,-253 -1071,-380 -1772,-380 263,-496 711,-944 1334,-1363 633,-409 1402,-740 2317,-993 905,-253 1908,-380 3008,-389 1265,10 2327,175 3183,516 857,331 1538,789 2054,1363 506,584 876,1236 1090,1966 224,730 331,1489 331,2288l0 5023c-2745,117 -5120,399 -7106,818 -1986,428 -3641,964 -4974,1626 -1334,652 -2385,1392 -3164,2219 -789,818 -1343,1684 -1674,2599 -331,915 -497,1840 -487,2784 10,1470 331,2755 954,3855 633,1100 1519,1957 2667,2570 1139,613 2482,925 4030,934 1275,10 2541,-224 3787,-691 1246,-467 2385,-1217 3427,-2239 1032,-1032 1879,-2395 2541,-4079l0 2395c-10,1596 380,2745 1158,3456 789,711 2034,1051 3748,1042 1003,-10 1957,-156 2862,-428 905,-282 1684,-643 2336,-1090l0 -1869c-214,126 -477,243 -798,350 -321,107 -652,165 -1012,175 -370,10 -701,-68 -973,-234 -282,-166 -506,-467 -662,-915 -156,-448 -234,-1100 -234,-1947l0 -12850zm-6425 7651c-10,1431 -302,2667 -876,3709 -565,1051 -1324,1859 -2278,2434 -964,565 -2035,857 -3212,866 -866,-10 -1616,-195 -2258,-574 -652,-370 -1158,-905 -1519,-1577 -360,-681 -535,-1489 -545,-2404 -10,-857 175,-1684 535,-2473 370,-798 964,-1519 1781,-2171 827,-652 1927,-1188 3300,-1597 1373,-419 3066,-672 5072,-769l0 4556zm55428 -3913c0,2171 -312,4176 -915,6016 -613,1840 -1519,3446 -2716,4819 -1207,1373 -2687,2434 -4449,3193 -1772,759 -3806,1149 -6113,1158 -2307,-10 -4342,-399 -6113,-1158 -1762,-759 -3242,-1820 -4439,-3193 -1207,-1373 -2112,-2979 -2716,-4819 -613,-1840 -925,-3845 -925,-6016 0,-2171 312,-4176 925,-6016 604,-1840 1509,-3446 2716,-4819 1197,-1373 2677,-2434 4439,-3193 1772,-759 3806,-1149 6113,-1158 2307,10 4342,399 6113,1158 1762,759 3242,1820 4449,3193 1197,1373 2103,2979 2716,4819 604,1840 915,3845 915,6016zm-21611 0c0,2852 253,5266 769,7242 516,1976 1324,3485 2414,4517 1100,1032 2502,1548 4235,1558 1733,-10 3134,-526 4234,-1548 1090,-1022 1898,-2521 2414,-4497 516,-1986 769,-4400 769,-7272 0,-2872 -253,-5286 -769,-7272 -516,-1976 -1324,-3475 -2414,-4497 -1100,-1032 -2502,-1538 -4234,-1548 -1733,10 -3135,526 -4235,1558 -1090,1032 -1898,2541 -2414,4517 -516,1976 -769,4390 -769,7242zm27169 15186l5257 -2278c827,526 1702,958 2628,1295 923,335 1841,579 2745,740 906,161 1743,246 2511,243 1898,-7 3612,-389 5120,-1139 1509,-750 2795,-1810 3865,-3173 1062,-1353 1872,-2958 2434,-4809 558,-1839 847,-3865 847,-6065 0,-3261 -444,-6018 -1314,-8274 -872,-2260 -2165,-3966 -3855,-5140 -1688,-1172 -3767,-1756 -6220,-1772 -652,-4 -1391,72 -2219,234 -817,159 -1644,450 -2492,876 -836,420 -1614,1024 -2327,1801 -708,771 -1285,1772 -1723,2988l0 -18165 -9988 0 0 2044 3563 0 0 40593 1168 0zm5257 -18924c0,-1713 226,-3144 643,-4273 420,-1138 954,-2035 1626,-2696 662,-652 1363,-1118 2122,-1392 750,-271 1470,-399 2151,-399 2181,0 3856,1011 5043,3076 1179,2053 1791,5198 1791,9423 0,2930 -350,5335 -1022,7204 -672,1869 -1615,3252 -2823,4147 -1197,887 -2609,1330 -4215,1324 -886,-3 -1772,-117 -2677,-350 -905,-234 -1781,-584 -2638,-1051l0 -15011zm43198 -21669l0 12499c-827,-526 -1702,-958 -2628,-1295 -923,-335 -1841,-579 -2745,-740 -906,-161 -1743,-246 -2511,-243 -1918,7 -3630,391 -5140,1139 -1518,751 -2806,1809 -3865,3164 -1063,1361 -1868,2969 -2424,4819 -553,1840 -837,3865 -837,6065 0,3261 444,6018 1314,8274 872,2260 2154,3969 3835,5140 1686,1175 3748,1757 6181,1772 672,4 1412,-68 2239,-234 827,-165 1658,-452 2502,-876 840,-422 1611,-1027 2327,-1801 715,-774 1304,-1772 1752,-2988l0 5315 9988 0 0 -2044 -3563 0 0 -40009 -9988 0 0 2044 3563 0zm0 29145c0,1713 -235,3144 -652,4274 -420,1138 -969,2030 -1635,2687 -667,657 -1373,1129 -2122,1402 -750,273 -1460,399 -2132,399 -2171,0 -3849,-1016 -5033,-3076 -1182,-2057 -1795,-5198 -1801,-9423 -4,-2930 351,-5335 1022,-7204 672,-1869 1616,-3252 2823,-4147 1197,-886 2609,-1330 4215,-1324 886,3 1772,117 2677,350 905,233 1781,584 2638,1051l0 15011zm14777 -25465c0,740 185,1363 535,1879 350,516 837,905 1441,1168 604,263 1285,399 2054,399 769,0 1450,-136 2054,-399 604,-263 1090,-652 1441,-1168 350,-516 535,-1139 535,-1879 0,-759 -183,-1413 -535,-1957 -348,-537 -835,-948 -1441,-1236 -602,-286 -1285,-428 -2054,-428 -769,0 -1452,142 -2054,428 -605,288 -1093,700 -1441,1236 -353,544 -535,1197 -535,1957zm7768 34285l0 -27159 -9929 0 0 2044 3504 0 0 25115 -3504 0 0 2044 13492 0 0 -2044 -3563 0zm22312 2336l-5140 0 -10805 -27451 -3563 0 0 -2044 16588 0 0 2044 -5315 0 8177 21494 117 0 7126 -21494 -5490 0 0 -2044 11740 0 0 2044 -4030 0 -9404 27451z"/>
</svg>
